<svg width="78" height="25" viewBox="0 0 78 25" fill="none" xmlns="http://www.w3.org/2000/svg">
<path d="M41.2943 0.481079V24.5198H46.2843V18.8865L51.2062 13.4725L56.1055 18.8865V24.5198H61.0955V17.322L54.2672 9.79309L62.4578 0.481079H56.1068L46.7382 11.241V0.481079H41.2943Z" fill="black"/>
<path d="M5.44391 19.2307V0.481079H0V24.5198H13.9502V19.2314H5.44391V19.2307Z" fill="black"/>
<path fill-rule="evenodd" clip-rule="evenodd" d="M26.3352 25C33.1744 25 38.7201 19.5742 38.7201 12.5C38.7201 5.42576 33.1744 0 26.3352 0C19.4959 0 13.9502 5.42576 13.9502 12.5C13.9502 19.5742 19.4959 25 26.3352 25ZM32.8196 15.2105C31.8279 17.9507 29.324 19.643 26.3352 19.643C22.4565 19.643 19.3941 16.7923 19.3941 12.5C19.3941 8.2077 22.4565 5.35704 26.3352 5.35704C30.2139 5.35704 33.2762 8.2077 33.2762 12.5C33.2762 13.4849 33.1146 14.3942 32.8196 15.2105Z" fill="black"/>
<path d="M74.754 19.2307H69.4937V0.481079H64.0498V24.5198H78V19.2314H74.754V19.2307Z" fill="black"/>
</svg>
