<svg width="134" height="22" viewBox="0 0 134 22" fill="none" xmlns="http://www.w3.org/2000/svg">
<g clip-path="url(#clip0_7_2)">
<path d="M32.1562 7.625H36.1797C37.0443 7.625 37.7812 7.75521 38.3906 8.01562C39 8.27604 39.4662 8.66146 39.7892 9.17188C40.1173 9.67708 40.2812 10.3021 40.2812 11.0469C40.2812 11.6146 40.1771 12.1146 39.9688 12.5469C39.7604 12.9792 39.4661 13.3438 39.0859 13.6406C38.7057 13.9323 38.2527 14.1589 37.7267 14.3203L37.1329 14.6094H33.5156L33.5 13.0547H36.2109C36.6797 13.0547 37.0704 12.9714 37.3829 12.8047C37.6954 12.638 37.9297 12.4115 38.0859 12.125C38.2474 11.8333 38.3281 11.5052 38.3281 11.1406C38.3281 10.7448 38.25 10.401 38.0938 10.1094C37.9427 9.8125 37.7083 9.58594 37.3906 9.42969C37.0729 9.26823 36.6693 9.1875 36.1797 9.1875H34.1172V19H32.1562V7.625ZM38.6484 19L35.9767 13.8906L38.0312 13.8828L40.7422 18.8984V19H38.6484ZM45.7734 19.1562C45.1484 19.1562 44.5833 19.0547 44.0781 18.8516C43.5781 18.6432 43.1511 18.3542 42.797 17.9844C42.448 17.6146 42.1797 17.1797 41.9922 16.6797C41.8047 16.1797 41.7109 15.6406 41.7109 15.0625V14.75C41.7109 14.0885 41.8073 13.4896 42 12.9531C42.1927 12.4167 42.4609 11.9583 42.8047 11.5781C43.1484 11.1927 43.5547 10.8984 44.0234 10.6953C44.4922 10.4922 45.0001 10.3906 45.547 10.3906C46.1511 10.3906 46.6798 10.4922 47.1329 10.6953C47.586 10.8984 47.961 11.1849 48.2579 11.5547C48.56 11.9193 48.7839 12.3542 48.9297 12.8594C49.0807 13.3646 49.1562 13.9219 49.1562 14.5312V15.3359H42.625V13.9844H47.297V13.8359C47.2866 13.4974 47.2188 13.1797 47.0938 12.8828C46.974 12.5859 46.7892 12.3464 46.5392 12.1641C46.2892 11.9818 45.9558 11.8906 45.5392 11.8906C45.2267 11.8906 44.9479 11.9583 44.7031 12.0938C44.4635 12.224 44.2631 12.4141 44.1017 12.6641C43.9402 12.9141 43.8152 13.2161 43.7267 13.5703C43.6433 13.9193 43.6017 14.3125 43.6017 14.75V15.0625C43.6017 15.4323 43.651 15.776 43.75 16.0938C43.8542 16.4062 44.0052 16.6797 44.2031 16.9141C44.401 17.1484 44.6407 17.3333 44.922 17.4688C45.2032 17.599 45.5235 17.6641 45.8829 17.6641C46.336 17.6641 46.7396 17.5729 47.0938 17.3906C47.4479 17.2083 47.7552 16.9505 48.0156 16.6172L49.0079 17.5781C48.8256 17.8438 48.5886 18.099 48.297 18.3438C48.0053 18.5833 47.6485 18.7786 47.2267 18.9297C46.81 19.0807 46.3255 19.1562 45.7734 19.1562ZM54.0781 17.6562C54.3854 17.6562 54.6616 17.5964 54.9062 17.4766C55.1562 17.3516 55.3569 17.1797 55.5079 16.9609C55.6642 16.7422 55.75 16.4896 55.7656 16.2031H57.5392C57.5287 16.75 57.3672 17.2474 57.0547 17.6953C56.7422 18.1432 56.3281 18.5 55.8125 18.7656C55.2969 19.026 54.7267 19.1562 54.1017 19.1562C53.4558 19.1562 52.8933 19.0469 52.4142 18.8281C51.935 18.6042 51.5365 18.2969 51.2188 17.9062C50.901 17.5156 50.6615 17.0651 50.5 16.5547C50.3438 16.0443 50.2656 15.4974 50.2656 14.9141V14.6406C50.2656 14.0573 50.3438 13.5104 50.5 13C50.6615 12.4844 50.901 12.0312 51.2188 11.6406C51.5365 11.25 51.935 10.9453 52.4142 10.7266C52.8933 10.5026 53.4531 10.3906 54.0938 10.3906C54.7708 10.3906 55.3646 10.526 55.875 10.7969C56.3854 11.0625 56.7865 11.4349 57.0781 11.9141C57.375 12.388 57.5287 12.9401 57.5392 13.5703H55.7656C55.75 13.2578 55.6719 12.9766 55.5312 12.7266C55.3959 12.4714 55.2031 12.2682 54.9531 12.1172C54.7083 11.9661 54.4142 11.8906 54.0704 11.8906C53.6902 11.8906 53.375 11.9688 53.125 12.125C52.875 12.276 52.6798 12.4844 52.5392 12.75C52.3985 13.0104 52.297 13.3047 52.2345 13.6328C52.1772 13.9557 52.1484 14.2917 52.1484 14.6406V14.9141C52.1484 15.263 52.1772 15.6016 52.2345 15.9297C52.2918 16.2578 52.3907 16.5521 52.5312 16.8125C52.6771 17.0677 52.875 17.2734 53.125 17.4297C53.375 17.5807 53.6927 17.6562 54.0781 17.6562ZM58.625 14.8672V14.6875C58.625 14.0781 58.7135 13.513 58.8906 12.9922C59.0677 12.4661 59.323 12.0104 59.6562 11.625C59.9949 11.2344 60.4062 10.9323 60.8906 10.7188C61.3802 10.5 61.9324 10.3906 62.547 10.3906C63.1668 10.3906 63.7189 10.5 64.2032 10.7188C64.6928 10.9323 65.1068 11.2344 65.4453 11.625C65.7839 12.0104 66.0418 12.4661 66.2189 12.9922C66.3959 13.513 66.4844 14.0781 66.4844 14.6875V14.8672C66.4844 15.4766 66.3959 16.0417 66.2189 16.5625C66.0418 17.0833 65.7839 17.5391 65.4453 17.9297C65.1068 18.3151 64.6953 18.6172 64.2109 18.8359C63.7266 19.0495 63.1771 19.1562 62.5625 19.1562C61.9427 19.1562 61.388 19.0495 60.8984 18.8359C60.4141 18.6172 60.0027 18.3151 59.6642 17.9297C59.3256 17.5391 59.0677 17.0833 58.8906 16.5625C58.7135 16.0417 58.625 15.4766 58.625 14.8672ZM60.5079 14.6875V14.8672C60.5079 15.2474 60.5469 15.6068 60.625 15.9453C60.7031 16.2839 60.8255 16.5807 60.9922 16.8359C61.1589 17.0911 61.3725 17.2917 61.6329 17.4375C61.8933 17.5833 62.2031 17.6562 62.5625 17.6562C62.9115 17.6562 63.2135 17.5833 63.4688 17.4375C63.7292 17.2917 63.9427 17.0911 64.1094 16.8359C64.276 16.5807 64.3985 16.2839 64.4767 15.9453C64.56 15.6068 64.6017 15.2474 64.6017 14.8672V14.6875C64.6017 14.3125 64.56 13.9583 64.4767 13.625C64.3985 13.2865 64.2735 12.987 64.1017 12.7266C63.935 12.4661 63.7214 12.263 63.4609 12.1172C63.2057 11.9661 62.9011 11.8906 62.547 11.8906C62.1928 11.8906 61.8854 11.9661 61.625 12.1172C61.3698 12.263 61.1589 12.4661 60.9922 12.7266C60.8255 12.987 60.7031 13.2865 60.625 13.625C60.5469 13.9583 60.5079 14.3125 60.5079 14.6875ZM69.9453 12.2656V19H68.0625V10.5469H69.8359L69.9453 12.2656ZM69.6407 14.4609L69 14.4531C69 13.8698 69.073 13.3307 69.2189 12.8359C69.3647 12.3411 69.5781 11.9115 69.8594 11.5469C70.1406 11.1771 70.4896 10.8932 70.9062 10.6953C71.3281 10.4922 71.8152 10.3906 72.3673 10.3906C72.7527 10.3906 73.1042 10.4479 73.4219 10.5625C73.7448 10.6719 74.0234 10.8464 74.2578 11.0859C74.4974 11.3255 74.6798 11.6328 74.8048 12.0078C74.935 12.3828 75 12.8359 75 13.3672V19H73.1173V13.5312C73.1173 13.1198 73.0548 12.7969 72.9298 12.5625C72.81 12.3281 72.6354 12.1615 72.4062 12.0625C72.1823 11.9583 71.9142 11.9062 71.6017 11.9062C71.2475 11.9062 70.9453 11.974 70.6953 12.1094C70.4505 12.2448 70.2501 12.4297 70.0939 12.6641C69.9376 12.8984 69.8229 13.1693 69.75 13.4766C69.6771 13.7839 69.6407 14.112 69.6407 14.4609ZM74.8828 13.9609L74 14.1562C74 13.6458 74.0703 13.1641 74.2109 12.7109C74.3568 12.2526 74.5678 11.8516 74.8439 11.5078C75.1251 11.1589 75.4714 10.8854 75.8828 10.6875C76.2943 10.4896 76.7656 10.3906 77.2969 10.3906C77.7292 10.3906 78.1147 10.4505 78.4532 10.5703C78.797 10.6849 79.0886 10.8672 79.3282 11.1172C79.5678 11.3672 79.75 11.6927 79.875 12.0938C80 12.4896 80.0625 12.9688 80.0625 13.5312V19H78.1719V13.5234C78.1719 13.0964 78.1094 12.7656 77.9844 12.5312C77.8646 12.2969 77.6928 12.1354 77.4689 12.0469C77.2449 11.9531 76.9767 11.9062 76.6642 11.9062C76.3725 11.9062 76.1147 11.9609 75.8907 12.0703C75.672 12.1745 75.487 12.3229 75.3359 12.5156C75.1849 12.7031 75.0704 12.9193 74.9923 13.1641C74.9194 13.4089 74.8828 13.6745 74.8828 13.9609ZM85.7267 19.1562C85.1017 19.1562 84.5365 19.0547 84.0312 18.8516C83.5312 18.6432 83.1042 18.3542 82.75 17.9844C82.401 17.6146 82.1328 17.1797 81.9453 16.6797C81.7578 16.1797 81.6642 15.6406 81.6642 15.0625V14.75C81.6642 14.0885 81.7605 13.4896 81.9532 12.9531C82.1459 12.4167 82.4141 11.9583 82.7578 11.5781C83.1016 11.1927 83.5079 10.8984 83.9767 10.6953C84.4454 10.4922 84.9531 10.3906 85.5 10.3906C86.1042 10.3906 86.6328 10.4922 87.0859 10.6953C87.5391 10.8984 87.9141 11.1849 88.2109 11.5547C88.513 11.9193 88.737 12.3542 88.8828 12.8594C89.0339 13.3646 89.1094 13.9219 89.1094 14.5312V15.3359H82.5782V13.9844H87.25V13.8359C87.2396 13.4974 87.1719 13.1797 87.0469 12.8828C86.9271 12.5859 86.7423 12.3464 86.4923 12.1641C86.2423 11.9818 85.909 11.8906 85.4923 11.8906C85.1798 11.8906 84.901 11.9583 84.6562 12.0938C84.4167 12.224 84.2162 12.4141 84.0548 12.6641C83.8933 12.9141 83.7683 13.2161 83.6798 13.5703C83.5965 13.9193 83.5548 14.3125 83.5548 14.75V15.0625C83.5548 15.4323 83.6043 15.776 83.7032 16.0938C83.8074 16.4062 83.9583 16.6797 84.1562 16.9141C84.3542 17.1484 84.5938 17.3333 84.875 17.4688C85.1562 17.599 85.4766 17.6641 85.8359 17.6641C86.2891 17.6641 86.6927 17.5729 87.0469 17.3906C87.401 17.2083 87.7084 16.9505 87.9689 16.6172L88.9609 17.5781C88.7786 17.8438 88.5417 18.099 88.25 18.3438C87.9583 18.5833 87.6017 18.7786 87.1798 18.9297C86.7631 19.0807 86.2787 19.1562 85.7267 19.1562ZM92.4453 12.3516V19H90.5625V10.5469H92.3359L92.4453 12.3516ZM92.1094 14.4609L91.5 14.4531C91.5052 13.8542 91.5885 13.3047 91.75 12.8047C91.9167 12.3047 92.1458 11.875 92.4375 11.5156C92.7344 11.1562 93.0885 10.8802 93.5 10.6875C93.9115 10.4896 94.3698 10.3906 94.875 10.3906C95.2812 10.3906 95.6485 10.4479 95.9767 10.5625C96.31 10.6719 96.5939 10.8516 96.8282 11.1016C97.0678 11.3516 97.25 11.6771 97.375 12.0781C97.5 12.474 97.5625 12.9609 97.5625 13.5391V19H95.6719V13.5312C95.6719 13.125 95.6121 12.8047 95.4923 12.5703C95.3777 12.3307 95.2083 12.1615 94.9844 12.0625C94.7656 11.9583 94.4923 11.9062 94.1642 11.9062C93.8412 11.9062 93.5521 11.974 93.2969 12.1094C93.0417 12.2448 92.8255 12.4297 92.6484 12.6641C92.4766 12.8984 92.3438 13.1693 92.25 13.4766C92.1562 13.7839 92.1094 14.112 92.1094 14.4609ZM104.641 17.25V7H106.531V19H104.82L104.641 17.25ZM99.1407 14.8672V14.7031C99.1407 14.0625 99.2161 13.4792 99.3672 12.9531C99.5182 12.4219 99.7371 11.9661 100.023 11.5859C100.31 11.2005 100.659 10.9062 101.07 10.7031C101.482 10.4948 101.945 10.3906 102.461 10.3906C102.971 10.3906 103.419 10.4896 103.805 10.6875C104.19 10.8854 104.518 11.1693 104.789 11.5391C105.06 11.9036 105.276 12.3411 105.438 12.8516C105.599 13.3568 105.714 13.9193 105.781 14.5391V15.0625C105.714 15.6667 105.599 16.2188 105.438 16.7188C105.276 17.2188 105.06 17.651 104.789 18.0156C104.518 18.3802 104.188 18.6615 103.797 18.8594C103.411 19.0573 102.961 19.1562 102.445 19.1562C101.935 19.1562 101.474 19.0495 101.062 18.8359C100.656 18.6224 100.31 18.3229 100.023 17.9375C99.7371 17.5521 99.5182 17.099 99.3672 16.5781C99.2161 16.0521 99.1407 15.4818 99.1407 14.8672ZM101.023 14.7031V14.8672C101.023 15.2526 101.057 15.612 101.125 15.9453C101.198 16.2786 101.31 16.5729 101.461 16.8281C101.612 17.0781 101.807 17.276 102.047 17.4219C102.292 17.5625 102.583 17.6328 102.922 17.6328C103.349 17.6328 103.701 17.5391 103.977 17.3516C104.253 17.1641 104.469 16.9115 104.625 16.5938C104.786 16.2708 104.896 15.9115 104.953 15.5156V14.1016C104.922 13.7943 104.857 13.5078 104.758 13.2422C104.664 12.9766 104.536 12.7448 104.375 12.5469C104.214 12.3438 104.013 12.1875 103.773 12.0781C103.539 11.9635 103.26 11.9062 102.938 11.9062C102.594 11.9062 102.302 11.9792 102.062 12.125C101.823 12.2708 101.625 12.4714 101.469 12.7266C101.318 12.9818 101.206 13.2786 101.133 13.6172C101.06 13.9557 101.023 14.3177 101.023 14.7031ZM113.266 17.3047V13.2734C113.266 12.9714 113.211 12.7109 113.102 12.4922C112.992 12.2734 112.826 12.1042 112.602 11.9844C112.383 11.8646 112.107 11.8047 111.773 11.8047C111.466 11.8047 111.201 11.8568 110.977 11.9609C110.753 12.0651 110.578 12.2057 110.453 12.3828C110.328 12.5599 110.266 12.7604 110.266 12.9844H108.391C108.391 12.651 108.471 12.3281 108.633 12.0156C108.794 11.7031 109.029 11.4245 109.336 11.1797C109.643 10.9349 110.01 10.7422 110.438 10.6016C110.865 10.4609 111.344 10.3906 111.875 10.3906C112.51 10.3906 113.073 10.4974 113.562 10.7109C114.057 10.9245 114.445 11.2474 114.727 11.6797C115.013 12.1068 115.156 12.6432 115.156 13.2891V17.0469C115.156 17.4323 115.182 17.7786 115.234 18.0859C115.292 18.388 115.372 18.651 115.477 18.875V19H113.547C113.458 18.7969 113.388 18.5391 113.336 18.2266C113.289 17.9089 113.266 17.6016 113.266 17.3047ZM113.539 13.8594L113.555 15.0234H112.203C111.854 15.0234 111.547 15.0573 111.281 15.125C111.016 15.1875 110.794 15.2812 110.617 15.4062C110.44 15.5312 110.307 15.6823 110.219 15.8594C110.13 16.0365 110.086 16.237 110.086 16.4609C110.086 16.6849 110.138 16.8906 110.242 17.0781C110.346 17.2604 110.497 17.4036 110.695 17.5078C110.898 17.612 111.143 17.6641 111.43 17.6641C111.815 17.6641 112.151 17.5859 112.438 17.4297C112.729 17.2682 112.958 17.0729 113.125 16.8438C113.292 16.6094 113.38 16.388 113.391 16.1797L114 17.0156C113.938 17.2292 113.831 17.4583 113.68 17.7031C113.529 17.9479 113.331 18.1823 113.086 18.4062C112.846 18.625 112.557 18.8047 112.219 18.9453C111.885 19.0859 111.5 19.1562 111.062 19.1562C110.51 19.1562 110.018 19.0469 109.586 18.8281C109.154 18.6042 108.815 18.3047 108.57 17.9297C108.326 17.5495 108.203 17.1198 108.203 16.6406C108.203 16.1927 108.286 15.7969 108.453 15.4531C108.625 15.1042 108.875 14.8125 109.203 14.5781C109.536 14.3438 109.943 14.1667 110.422 14.0469C110.901 13.9219 111.448 13.8594 112.062 13.8594H113.539ZM122.281 17.25V7H124.172V19H122.461L122.281 17.25ZM116.781 14.8672V14.7031C116.781 14.0625 116.857 13.4792 117.008 12.9531C117.159 12.4219 117.378 11.9661 117.664 11.5859C117.951 11.2005 118.299 10.9062 118.711 10.7031C119.122 10.4948 119.586 10.3906 120.102 10.3906C120.612 10.3906 121.06 10.4896 121.445 10.6875C121.831 10.8854 122.159 11.1693 122.43 11.5391C122.701 11.9036 122.917 12.3411 123.078 12.8516C123.24 13.3568 123.354 13.9193 123.422 14.5391V15.0625C123.354 15.6667 123.24 16.2188 123.078 16.7188C122.917 17.2188 122.701 17.651 122.43 18.0156C122.159 18.3802 121.828 18.6615 121.438 18.8594C121.052 19.0573 120.602 19.1562 120.086 19.1562C119.576 19.1562 119.115 19.0495 118.703 18.8359C118.297 18.6224 117.951 18.3229 117.664 17.9375C117.378 17.5521 117.159 17.099 117.008 16.5781C116.857 16.0521 116.781 15.4818 116.781 14.8672ZM118.664 14.7031V14.8672C118.664 15.2526 118.698 15.612 118.766 15.9453C118.839 16.2786 118.951 16.5729 119.102 16.8281C119.253 17.0781 119.448 17.276 119.688 17.4219C119.932 17.5625 120.224 17.6328 120.562 17.6328C120.99 17.6328 121.341 17.5391 121.617 17.3516C121.893 17.1641 122.109 16.9115 122.266 16.5938C122.427 16.2708 122.536 15.9115 122.594 15.5156V14.1016C122.562 13.7943 122.497 13.5078 122.398 13.2422C122.305 12.9766 122.177 12.7448 122.016 12.5469C121.854 12.3438 121.654 12.1875 121.414 12.0781C121.18 11.9635 120.901 11.9062 120.578 11.9062C120.234 11.9062 119.943 11.9792 119.703 12.125C119.464 12.2708 119.266 12.4714 119.109 12.7266C118.958 12.9818 118.846 13.2786 118.773 13.6172C118.701 13.9557 118.664 14.3177 118.664 14.7031ZM125.781 14.8672V14.6875C125.781 14.0781 125.87 13.513 126.047 12.9922C126.224 12.4661 126.479 12.0104 126.812 11.625C127.151 11.2344 127.562 10.9323 128.047 10.7188C128.536 10.5 129.089 10.3906 129.703 10.3906C130.323 10.3906 130.875 10.5 131.359 10.7188C131.849 10.9323 132.263 11.2344 132.602 11.625C132.94 12.0104 133.198 12.4661 133.375 12.9922C133.552 13.513 133.641 14.0781 133.641 14.6875V14.8672C133.641 15.4766 133.552 16.0417 133.375 16.5625C133.198 17.0833 132.94 17.5391 132.602 17.9297C132.263 18.3151 131.852 18.6172 131.367 18.8359C130.883 19.0495 130.333 19.1562 129.719 19.1562C129.099 19.1562 128.544 19.0495 128.055 18.8359C127.57 18.6172 127.159 18.3151 126.82 17.9297C126.482 17.5391 126.224 17.0833 126.047 16.5625C125.87 16.0417 125.781 15.4766 125.781 14.8672ZM127.664 14.6875V14.8672C127.664 15.2474 127.703 15.6068 127.781 15.9453C127.859 16.2839 127.982 16.5807 128.148 16.8359C128.315 17.0911 128.529 17.2917 128.789 17.4375C129.049 17.5833 129.359 17.6562 129.719 17.6562C130.068 17.6562 130.37 17.5833 130.625 17.4375C130.885 17.2917 131.099 17.0911 131.266 16.8359C131.432 16.5807 131.555 16.2839 131.633 15.9453C131.716 15.6068 131.758 15.2474 131.758 14.8672V14.6875C131.758 14.3125 131.716 13.9583 131.633 13.625C131.555 13.2865 131.43 12.987 131.258 12.7266C131.091 12.4661 130.878 12.263 130.617 12.1172C130.362 11.9661 130.057 11.8906 129.703 11.8906C129.349 11.8906 129.042 11.9661 128.781 12.1172C128.526 12.263 128.315 12.4661 128.148 12.7266C127.982 12.987 127.859 13.2865 127.781 13.625C127.703 13.9583 127.664 14.3125 127.664 14.6875Z" fill="#FFB800"/>
<path d="M10.0482 0.962344C10.3456 0.0369643 11.6548 0.0369671 11.9522 0.962347L13.846 6.85509C13.979 7.26866 14.3637 7.54912 14.7981 7.54912H20.9496C21.9157 7.54912 22.3202 8.78314 21.5416 9.35506L16.5461 13.0245C16.1995 13.2792 16.0545 13.7269 16.1861 14.1364L18.0897 20.0598C18.3865 20.9831 17.3273 21.7458 16.5457 21.1717L11.5922 17.5332C11.2399 17.2744 10.7605 17.2744 10.4082 17.5332L5.45469 21.1717C4.67314 21.7458 3.61394 20.9831 3.91065 20.0598L5.8143 14.1364C5.9459 13.7269 5.80091 13.2792 5.45426 13.0245L0.458753 9.35506C-0.319836 8.78315 0.0846849 7.54912 1.05075 7.54912H7.20231C7.63672 7.54912 8.02144 7.26866 8.15435 6.85509L10.0482 0.962344Z" fill="#FFB800"/>
</g>
<defs>
<clipPath id="clip0_7_2">
<rect width="134" height="22" fill="white"/>
</clipPath>
</defs>
</svg>
