<svg width="12" height="12" viewBox="0 0 12 12" fill="none" xmlns="http://www.w3.org/2000/svg">
<path opacity="0.1" d="M6 0C2.68625 0 0 2.68632 0 6.00016C4.10215e-05 6.78811 0.155276 7.56834 0.456842 8.29629C0.758409 9.02425 1.2004 9.68568 1.75758 10.2428C2.31476 10.8 2.97622 11.2419 3.70419 11.5434C4.43216 11.8449 5.21238 12 6.00031 12C6.78824 12 7.56845 11.8447 8.29639 11.5431C9.02433 11.2416 9.68574 10.7996 10.2429 10.2424C10.8 9.68518 11.2419 9.0237 11.5434 8.29572C11.8449 7.56773 12 6.78748 12 5.99953C12 2.68632 9.31313 0 6 0ZM5.90563 9.49962H5.87375C5.385 9.48525 5.04 9.12461 5.05438 8.64272C5.06813 8.16896 5.42125 7.82458 5.89375 7.82458L5.9225 7.82583C6.425 7.8402 6.76625 8.19709 6.75188 8.69273C6.7375 9.16774 6.39062 9.49962 5.90563 9.49962ZM7.9625 5.41764C7.8475 5.58015 7.595 5.7839 7.27625 6.03203L6.925 6.27391C6.7325 6.42392 6.61625 6.5658 6.57312 6.70393C6.53813 6.81268 6.52188 6.84205 6.51875 7.06393V7.12019H5.17813L5.18188 7.00643C5.19875 6.54142 5.21 6.26641 5.40313 6.03953C5.70625 5.68452 6.375 5.25326 6.40313 5.23514C6.49487 5.16811 6.57491 5.08638 6.64 4.99325C6.78063 4.79887 6.8425 4.64637 6.8425 4.49762C6.8425 4.28886 6.78125 4.09573 6.65938 3.9251C6.54188 3.75885 6.31875 3.67635 5.99625 3.67635C5.67625 3.67635 5.45688 3.7776 5.32625 3.98635C5.19125 4.19948 5.12313 4.42386 5.12313 4.65325V4.71075H3.74125L3.74375 4.65075C3.77937 3.8051 4.08187 3.19571 4.64062 2.84007C4.9925 2.61444 5.43063 2.50007 5.94125 2.50007C6.60875 2.50007 7.17375 2.66257 7.6175 2.98258C8.06813 3.30696 8.29625 3.79322 8.29625 4.42699C8.29562 4.78137 8.18375 5.11451 7.9625 5.41764Z" fill="black"/>
</svg>
